<mxfile host="app.diagrams.net" modified="2023-07-18T04:02:34.662Z" agent="Mozilla/5.0 (Windows NT 10.0; Win64; x64) AppleWebKit/537.36 (KHTML, like Gecko) Chrome/114.0.0.0 Safari/537.36" version="21.6.2" etag="bqiuznp9CDdZhZyyUdur" type="github">
  <diagram name="Trang-1" id="in0JU9QCxo9osSnHQc92">
    <mxGraphModel>
      <root>
        <mxCell id="0" />
        <mxCell id="1" parent="0" />
      </root>
    </mxGraphModel>
  </diagram>
</mxfile>
